<?xml version="1.0" encoding="iso-8859-1"?>
<!-- Generator: Adobe Illustrator 19.0.0, SVG Export Plug-In . SVG Version: 6.00 Build 0)  -->
<svg version="1.1" id="Layer_1" xmlns="http://www.w3.org/2000/svg" xmlns:xlink="http://www.w3.org/1999/xlink" x="0px" y="0px"
	 viewBox="0 0 295.239 295.239" style="enable-background:new 0 0 295.239 295.239;" xml:space="preserve">
<g>
	<g>
		<g>
			<path d="M186.905,223.811c-7.805-20.081-26.99-33.333-48.81-33.333h-4.762v38.095h4.762c7.876,0,14.286,6.41,14.286,14.286
				s-6.41,14.286-14.286,14.286c-7.876,0-14.286-6.41-14.286-14.286c0-28.652-23.133-51.976-51.7-52.348l-0.281-21.729
				c-0.257-19.543-16.367-35.448-35.914-35.448c-14.552,0-26.39-11.838-26.39-26.39v-23.41c0-14.552,11.838-26.39,26.39-26.39H43.1
				c2.414,26.657,24.862,47.619,52.138,47.619h200V0.001h-200c-27.276,0-49.724,20.962-52.138,47.619h-7.186
				C16.11,47.62,0,63.734,0,83.534v23.41c0,19.8,16.11,35.914,35.914,35.914c14.367,0,26.2,11.686,26.39,26.048l0.29,22.333
				c-18.043,3.043-33.243,15.257-39.967,32.571H0v38.095h22.624c7.8,20.081,26.99,33.333,48.805,33.333h4.762v-38.095h-4.762
				c-7.876,0-14.286-6.41-14.286-14.286c0-7.876,6.41-14.286,14.286-14.286c7.876,0,14.286,6.41,14.286,14.286
				c0,28.881,23.5,52.381,52.381,52.381c21.814,0,41.005-13.252,48.81-33.333h22.619v19.048h38.095v-19.048h9.524v19.048h38.095
				v-57.142H186.905z M76.867,47.62c2.129-8.195,9.524-14.286,18.371-14.286c10.505,0,19.048,8.543,19.048,19.048
				S105.743,71.43,95.238,71.43c-8.848,0-16.243-6.09-18.371-14.286h18.371V47.62H76.867z M95.238,80.954
				c15.757,0,28.571-12.814,28.571-28.571c0-15.757-12.814-28.572-28.571-28.572c-14.129,0-25.862,10.319-28.143,23.81H52.662
				C55.038,26.225,73.219,9.525,95.238,9.525h190.476v85.714H95.238c-22.019,0-40.2-16.7-42.576-38.095h14.433
				C69.371,70.634,81.105,80.954,95.238,80.954z M285.716,271.428h-19.048V252.38h-28.571v19.048h-19.048V252.38h-39.014
				l-1.048,3.333c-5.638,17.948-22.071,30-40.89,30c-23.629,0-42.857-19.224-42.857-42.857c0-13.129-10.681-23.81-23.81-23.81
				c-13.129,0-23.81,10.681-23.81,23.81c0,11.5,8.195,21.119,19.048,23.329v19.267c-16.781-1.843-30.971-13.329-36.124-29.738
				l-1.052-3.333H9.524v-19.048H29.49l1.048-3.332c5.638-17.948,22.071-30,40.89-30c23.629,0,42.858,19.224,42.858,42.857
				c0,13.129,10.681,23.81,23.81,23.81s23.81-10.681,23.81-23.81c0-11.5-8.195-21.119-19.048-23.329v-19.267
				c16.781,1.843,30.971,13.329,36.129,29.738l1.048,3.333h105.681V271.428z"/>
			<rect x="138.095" y="28.572" width="138.095" height="9.524"/>
			<rect x="138.095" y="47.62" width="138.095" height="9.524"/>
			<rect x="138.095" y="66.668" width="119.048" height="9.524"/>
			<rect x="266.667" y="66.668" width="9.524" height="9.524"/>
		</g>
	</g>
</g>
<g>
</g>
<g>
</g>
<g>
</g>
<g>
</g>
<g>
</g>
<g>
</g>
<g>
</g>
<g>
</g>
<g>
</g>
<g>
</g>
<g>
</g>
<g>
</g>
<g>
</g>
<g>
</g>
<g>
</g>
</svg>
